<svg xmlns="http://www.w3.org/2000/svg" width="24" height="16" viewBox="0 0 24 16">
  <rect width="24" height="16" fill="#012169" />
  <path d="M0 0 L10 6.4 L8.8 8 L0 2.2 Z" fill="#ffffff" />
  <path d="M24 0 L14 6.4 L15.2 8 L24 2.2 Z" fill="#ffffff" />
  <path d="M0 16 L10 9.6 L8.8 8 L0 13.8 Z" fill="#ffffff" />
  <path d="M24 16 L14 9.6 L15.2 8 L24 13.8 Z" fill="#ffffff" />
  <path d="M0 0 L9.2 6 L7.4 6 L0 1.2 Z" fill="#c8102e" />
  <path d="M24 0 L14.8 6 L16.6 6 L24 1.2 Z" fill="#c8102e" />
  <path d="M0 16 L9.2 10 L7.4 10 L0 14.8 Z" fill="#c8102e" />
  <path d="M24 16 L14.8 10 L16.6 10 L24 14.8 Z" fill="#c8102e" />
  <rect x="9.4" width="5.2" height="16" fill="#ffffff" />
  <rect y="5.4" width="24" height="5.2" fill="#ffffff" />
  <rect x="10.4" width="3.2" height="16" fill="#c8102e" />
  <rect y="6.4" width="24" height="3.2" fill="#c8102e" />
</svg>
